# xmcd CD database file
# Copyright (C) 2004 Ti Kan
# 
# Track frame offsets:
#     150
#     14034
#     24956
#     36832
#     48977
#     61383
#     74237
#     87990
#     97615
#     109810
#     121240
#     139461
#     152698
#     165350
#     177484
#     190859
#     203034
#     215412
#     228943
#     240597
#     254441
#     267878
# 
# Disc length: 3754 seconds
# 
# Revision: 1
# Processed by: cddbd v1.5.1PL0 Copyright (c) Steve Scherf et al.
# Submitted via: DiscPlay 4.0.4
# 
DISCID=330ea816
DTITLE=Lightnin Hopkins - Houston Town  Blues
DYEAR=1900
DGENRE=Blues
TTITLE0=Katie Mae Blues
TTITLE1=Short Haired Woman
TTITLE2=Let Me Play With Your Poodle
TTITLE3=Come Back Baby
TTITLE4=Big Mama Jump
TTITLE5=Baby Please Don't Go
TTITLE6=Untrue Blues
TTITLE7=Henry Penny Blues
TTITLE8=Contrary Mary
TTITLE9=I Wonder (why)
TTITLE10=Let Me Fly Your Kite
TTITLE11=You're Not Going To Worry My Life Anymore
TTITLE12=Lightnin's Boogie
TTITLE13=Shotgun Blues
TTITLE14=Black Cat Bone
TTITLE15=Tim Moore's Farm
TTITLE16=Coffe Blues
TTITLE17=Give Me Central 209
TTITLE18=Papa Bones Boogie
TTITLE19=Long Way From Texas
TTITLE20=Sad News From Korea
TTITLE21=One Kid Of Favor
EXTD=
EXTT0=
EXTT1=
EXTT2=
EXTT3=
EXTT4=
EXTT5=
EXTT6=
EXTT7=
EXTT8=
EXTT9=
EXTT10=
EXTT11=
EXTT12=
EXTT13=
EXTT14=
EXTT15=
EXTT16=
EXTT17=
EXTT18=
EXTT19=
EXTT20=
EXTT21=
PLAYORDER=
